{
  "asset": {
    "version": "2.0",
    "generator": "GLTFExporter"
  },
  "scenes": [
    {
      "name": "Scene",
      "nodes": [
        2
      ]
    }
  ],
  "scene": 0,
  "nodes": [
    {
      "name": "Cube_0",
      "extras": {
        "name": "Cube_0"
      },
      "mesh": 0
    },
    {
      "name": "Cube_1",
      "extras": {
        "name": "Cube_1"
      },
      "mesh": 1
    },
    {
      "matrix": [
        1,
        0,
        0,
        0,
        0,
        1,
        0,
        0,
        0,
        0,
        1,
        0,
        0.0046300000000000004,
        0.002450000000000001,
        1.0708199999999999,
        1
      ],
      "name": "Cube",
      "extras": {
        "name": "Cube"
      },
      "children": [
        0,
        1
      ]
    }
  ],
  "bufferViews": [
    {
      "buffer": 0,
      "byteOffset": 0,
      "byteLength": 167388,
      "target": 34962,
      "byteStride": 12
    },
    {
      "buffer": 0,
      "byteOffset": 167388,
      "byteLength": 167388,
      "target": 34962,
      "byteStride": 12
    },
    {
      "buffer": 0,
      "byteOffset": 334776,
      "byteLength": 327168,
      "target": 34963
    },
    {
      "buffer": 0,
      "byteOffset": 661944,
      "byteLength": 84924,
      "target": 34962,
      "byteStride": 12
    },
    {
      "buffer": 0,
      "byteOffset": 746868,
      "byteLength": 84924,
      "target": 34962,
      "byteStride": 12
    },
    {
      "buffer": 0,
      "byteOffset": 831792,
      "byteLength": 161280,
      "target": 34963
    }
  ],
  "buffers": [
    {
      "byteLength": 993072,
      "uri": "data:application/octet-stream;base64,"
    }
  ],
  "accessors": [
    {
      "bufferView": 0,
      "componentType": 5126,
      "count": 13949,
      "max": [
        1,
        1,
        1
      ],
      "min": [
        -1,
        -1,
        -1
      ],
      "type": "VEC3"
    },
    {
      "bufferView": 1,
      "componentType": 5126,
      "count": 13949,
      "max": [
        0.9865700006484985,
        0.9975500106811523,
        1.0112299919128418
      ],
      "min": [
        -1.0154099464416504,
        -1.0021799802780151,
        -0.9887599945068359
      ],
      "type": "VEC3"
    },
    {
      "bufferView": 2,
      "componentType": 5125,
      "count": 81792,
      "max": [
        13948
      ],
      "min": [
        0
      ],
      "type": "SCALAR"
    },
    {
      "bufferView": 3,
      "componentType": 5126,
      "count": 7077,
      "max": [
        1,
        1,
        1
      ],
      "min": [
        -1,
        -1,
        -1
      ],
      "type": "VEC3"
    },
    {
      "bufferView": 4,
      "componentType": 5126,
      "count": 7077,
      "max": [
        0.9760199785232544,
        0.9898200035095215,
        1.0033799409866333
      ],
      "min": [
        -1.0085200071334839,
        -0.9924399852752686,
        -0.9810299873352051
      ],
      "type": "VEC3"
    },
    {
      "bufferView": 5,
      "componentType": 5125,
      "count": 40320,
      "max": [
        7076
      ],
      "min": [
        0
      ],
      "type": "SCALAR"
    }
  ],
  "materials": [
    {
      "pbrMetallicRoughness": {
        "baseColorFactor": [
          0.00550832364647999,
          0.13394780696017977,
          0.979986380953846,
          1
        ]
      },
      "extensions": {
        "KHR_materials_pbrSpecularGlossiness": {
          "diffuseFactor": [
            0.00550832364647999,
            0.13394780696017977,
            0.979986380953846,
            1
          ],
          "specularFactor": [
            0,
            0.5674275762119579,
            0.9022800986427694
          ],
          "glossinessFactor": 0.43730945121951215
        }
      },
      "doubleSided": true,
      "name": "Material"
    },
    {
      "pbrMetallicRoughness": {
        "baseColorFactor": [
          0,
          0,
          0,
          1
        ]
      },
      "extensions": {
        "KHR_materials_pbrSpecularGlossiness": {
          "diffuseFactor": [
            0,
            0,
            0,
            1
          ],
          "specularFactor": [
            0.003817572869280599,
            0.003817572869280599,
            0.003817572869280599
          ],
          "glossinessFactor": 0.7848704268292683
        }
      },
      "doubleSided": true,
      "name": "Material.001"
    }
  ],
  "meshes": [
    {
      "primitives": [
        {
          "mode": 4,
          "attributes": {
            "NORMAL": 0,
            "POSITION": 1
          },
          "indices": 2,
          "material": 0
        }
      ]
    },
    {
      "primitives": [
        {
          "mode": 4,
          "attributes": {
            "NORMAL": 3,
            "POSITION": 4
          },
          "indices": 5,
          "material": 1
        }
      ]
    }
  ],
  "extensionsUsed": [
    "KHR_materials_pbrSpecularGlossiness"
  ]
}