{
  "asset": {
    "version": "2.0",
    "generator": "GLTFExporter"
  },
  "scenes": [
    {
      "name": "Scene",
      "nodes": [
        0
      ]
    }
  ],
  "scene": 0,
  "nodes": [
    {
      "matrix": [
        0.06,
        0,
        0,
        0,
        0,
        0.06,
        0,
        0,
        0,
        0,
        0.06,
        0,
        0,
        0,
        0,
        1
      ],
      "name": "bottlecap",
      "extras": {
        "name": "mesh_0"
      },
      "mesh": 0
    }
  ],
  "bufferViews": [
    {
      "buffer": 0,
      "byteOffset": 0,
      "byteLength": 7680,
      "target": 34962,
      "byteStride": 12
    },
    {
      "buffer": 0,
      "byteOffset": 7680,
      "byteLength": 7680,
      "target": 34962,
      "byteStride": 12
    },
    {
      "buffer": 0,
      "byteOffset": 15360,
      "byteLength": 10240,
      "target": 34962,
      "byteStride": 16
    },
    {
      "buffer": 0,
      "byteOffset": 25600,
      "byteLength": 5120,
      "target": 34962,
      "byteStride": 8
    },
    {
      "buffer": 0,
      "byteOffset": 30720,
      "byteLength": 13392,
      "target": 34963
    }
  ],
  "buffers": [
    {
      "byteLength": 44112,
      "uri": "data:application/octet-stream;base64,"
    }
  ],
  "accessors": [
    {
      "bufferView": 0,
      "componentType": 5126,
      "count": 640,
      "max": [
        0.9987587928771973,
        0.9992274641990662,
        0.9998099207878113
      ],
      "min": [
        -0.9992287755012512,
        -0.9992277026176453,
        -0.9997766017913818
      ],
      "type": "VEC3"
    },
    {
      "bufferView": 1,
      "componentType": 5126,
      "count": 640,
      "max": [
        35.03688049316406,
        35.131526947021484,
        11.975652694702148
      ],
      "min": [
        -35.131526947021484,
        -35.131526947021484,
        -0.31360235810279846
      ],
      "type": "VEC3"
    },
    {
      "bufferView": 2,
      "componentType": 5126,
      "count": 640,
      "max": [
        0.6821526885032654,
        0.9968873262405396,
        0.9969637393951416,
        1
      ],
      "min": [
        -0.6851779222488403,
        -0.9991806745529175,
        -0.9970899224281311,
        1
      ],
      "type": "VEC4"
    },
    {
      "bufferView": 3,
      "componentType": 5126,
      "count": 640,
      "max": [
        0.9964255690574646,
        0.9947470426559448
      ],
      "min": [
        0.0020000000949949026,
        0.001999958185479045
      ],
      "type": "VEC2"
    },
    {
      "bufferView": 4,
      "componentType": 5125,
      "count": 3348,
      "max": [
        639
      ],
      "min": [
        0
      ],
      "type": "SCALAR"
    }
  ],
  "materials": [
    {
      "pbrMetallicRoughness": {
        "metallicFactor": 0,
        "roughnessFactor": 0.9
      },
      "extensions": {
        "KHR_materials_unlit": {}
      }
    }
  ],
  "meshes": [
    {
      "primitives": [
        {
          "mode": 4,
          "attributes": {
            "NORMAL": 0,
            "POSITION": 1,
            "TANGENT": 2,
            "TEXCOORD_0": 3
          },
          "indices": 4,
          "material": 0
        }
      ]
    }
  ],
  "extensionsUsed": [
    "KHR_materials_unlit"
  ]
}